<svg width="29" height="29" viewBox="0 0 29 29" fill="none" xmlns="http://www.w3.org/2000/svg">
<path d="M11.75 21.375L4.875 14.5L6.81375 12.5475L11.75 17.4837L22.1863 7.0475L24.125 9M14.5 0.75C12.6943 0.75 10.9063 1.10565 9.2381 1.79666C7.56988 2.48766 6.05409 3.50048 4.77728 4.77728C2.19866 7.35591 0.75 10.8533 0.75 14.5C0.75 18.1467 2.19866 21.6441 4.77728 24.2227C6.05409 25.4995 7.56988 26.5123 9.2381 27.2033C10.9063 27.8943 12.6943 28.25 14.5 28.25C18.1467 28.25 21.6441 26.8013 24.2227 24.2227C26.8013 21.6441 28.25 18.1467 28.25 14.5C28.25 12.6943 27.8943 10.9063 27.2033 9.2381C26.5123 7.56988 25.4995 6.05409 24.2227 4.77728C22.9459 3.50048 21.4301 2.48766 19.7619 1.79666C18.0937 1.10565 16.3057 0.75 14.5 0.75Z" fill="white"/>
</svg>
