<svg width="84" height="26" viewBox="0 0 84 26" fill="none" xmlns="http://www.w3.org/2000/svg">
<mask id="path-1-outside-1_167_648" maskUnits="userSpaceOnUse" x="0" y="0" width="84" height="26" fill="black">
<rect fill="white" width="84" height="26"/>
<path d="M6.68694 19.1185V3.66122H1V1.88706H14.2177V3.66122H8.61961V19.1185H6.68694Z"/>
<path d="M16.4782 10.8909C16.5078 11.4527 16.5226 12.1624 16.5226 13.0199V19.1185H14.6455C14.6455 11.2753 14.6011 10.1147 14.5122 9.40504L16.356 9.2498C17.3409 7.17256 18.6626 6.13394 20.3213 6.13394C20.8915 6.13394 21.3617 6.1783 21.7319 6.26701L21.321 8.24075C20.9655 8.06334 20.5657 7.97463 20.1214 7.97463C19.6845 7.96724 19.2846 8.06334 18.9218 8.26293C18.559 8.46252 18.2257 8.71016 17.9221 9.00585C17.6259 9.30155 17.3594 9.61942 17.1224 9.95946L16.4782 10.8909Z"/>
<path d="M22.8318 12.8646C22.8318 11.8001 22.9762 10.8465 23.265 10.0038C23.5612 9.1537 23.9722 8.44404 24.4979 7.87483C25.5568 6.71424 26.9489 6.13394 28.6743 6.13394C30.5255 6.13394 31.9361 6.70685 32.9061 7.85265C33.854 8.97629 34.3279 10.61 34.3279 12.7538C34.3279 14.868 33.7577 16.5201 32.6173 17.7103C31.5733 18.797 30.2071 19.3403 28.5188 19.3403C26.749 19.3403 25.3643 18.7859 24.3646 17.677C23.3428 16.5608 22.8318 14.9567 22.8318 12.8646ZM28.541 17.7325C31.0438 17.7325 32.2952 16.0729 32.2952 12.7538C32.2508 10.2699 31.5696 8.71386 30.2515 8.08551C29.785 7.86374 29.237 7.75286 28.6076 7.75286C27.9856 7.75286 27.4376 7.86744 26.9637 8.0966C26.4898 8.31837 26.09 8.64363 25.7641 9.07238C25.1051 9.96685 24.783 11.2125 24.7978 12.8092C24.82 14.4059 25.1421 15.6257 25.7641 16.4684C26.3936 17.3111 27.3192 17.7325 28.541 17.7325Z"/>
<path d="M36.9659 12.8646C36.9659 11.8001 37.1103 10.8465 37.3991 10.0038C37.6953 9.1537 38.1063 8.44404 38.632 7.87483C39.6909 6.71424 41.083 6.13394 42.8084 6.13394C44.6596 6.13394 46.0702 6.70685 47.0402 7.85265C47.9881 8.97629 48.462 10.61 48.462 12.7538C48.462 14.868 47.8918 16.5201 46.7515 17.7103C45.7074 18.797 44.3412 19.3403 42.6529 19.3403C40.8831 19.3403 39.4984 18.7859 38.4987 17.677C37.4769 16.5608 36.9659 14.9567 36.9659 12.8646ZM42.6751 17.7325C45.1779 17.7325 46.4294 16.0729 46.4294 12.7538C46.3849 10.2699 45.7037 8.71386 44.3856 8.08551C43.9191 7.86374 43.3711 7.75286 42.7417 7.75286C42.1197 7.75286 41.5718 7.86744 41.0978 8.0966C40.6239 8.31837 40.2241 8.64363 39.8983 9.07238C39.2392 9.96685 38.9171 11.2125 38.9319 12.8092C38.9541 14.4059 39.2762 15.6257 39.8983 16.4684C40.5277 17.3111 41.4533 17.7325 42.6751 17.7325Z"/>
<path d="M52.6322 15.6589C52.5877 16.4647 52.6951 17.0006 52.9543 17.2668C53.2135 17.5255 53.5837 17.6549 54.065 17.6549C54.5537 17.6549 55.2572 17.5292 56.1754 17.2779L56.5308 18.8968C55.5534 19.1629 54.7722 19.3033 54.1872 19.3181C53.6096 19.3403 53.1135 19.2997 52.6988 19.1962C52.2841 19.1001 51.9287 18.9189 51.6325 18.6528C50.9957 18.0836 50.6921 17.1263 50.7217 15.7809L50.7439 1.15524L52.6544 1L52.6322 15.6589Z"/>
<path d="M58.7539 12.8646C58.7539 11.8001 58.8983 10.8465 59.1871 10.0038C59.4833 9.1537 59.8943 8.44404 60.42 7.87483C61.4789 6.71424 62.871 6.13394 64.5964 6.13394C66.4476 6.13394 67.8582 6.70685 68.8282 7.85265C69.7761 8.97629 70.25 10.61 70.25 12.7538C70.25 14.868 69.6798 16.5201 68.5395 17.7103C67.4954 18.797 66.1292 19.3403 64.4408 19.3403C62.6711 19.3403 61.2864 18.7859 60.2867 17.677C59.2649 16.5608 58.7539 14.9567 58.7539 12.8646ZM64.4631 17.7325C66.9659 17.7325 68.2173 16.0729 68.2173 12.7538C68.1729 10.2699 67.4917 8.71386 66.1736 8.08551C65.7071 7.86374 65.1591 7.75286 64.5297 7.75286C63.9077 7.75286 63.3597 7.86744 62.8858 8.0966C62.4119 8.31837 62.0121 8.64363 61.6862 9.07238C61.0272 9.96685 60.7051 11.2125 60.7199 12.8092C60.7421 14.4059 61.0642 15.6257 61.6862 16.4684C62.3157 17.3111 63.2413 17.7325 64.4631 17.7325Z"/>
<path fill-rule="evenodd" clip-rule="evenodd" d="M77.4839 14.8827C76.7731 14.8827 76.1585 14.7829 75.6401 14.5833C75.4328 14.7016 75.2403 14.8901 75.0625 15.1489C74.7738 15.5628 74.6294 15.8622 74.6294 16.047C74.6294 16.3945 74.8034 16.6828 75.1514 16.9119C75.4698 17.1115 75.8697 17.2113 76.351 17.2113C76.8397 17.2113 77.2766 17.1817 77.6617 17.1226C78.3207 17.0117 78.9205 16.9563 79.461 16.9563C80.0016 16.9563 80.5273 17.0117 81.0383 17.1226C81.5566 17.2335 82.0157 17.4146 82.4156 17.6659C83.2968 18.2204 83.7707 19.0557 83.8373 20.1719C83.8743 21.7243 83.1746 22.944 81.738 23.8311C80.5755 24.5556 79.2019 24.9437 77.6172 24.9954C76.1881 25.0398 74.9848 24.7626 74.0074 24.1638C73.6815 23.9642 73.3964 23.7239 73.1521 23.443C72.6708 22.8812 72.4301 22.1974 72.4301 21.3917C72.4301 20.3715 72.7855 19.4808 73.4964 18.7193C73.726 18.468 73.9851 18.2573 74.2739 18.0873C73.4224 17.6438 72.9966 17.0376 72.9966 16.2688C72.9966 15.8031 73.1447 15.3817 73.4409 15.0047C73.7445 14.6203 74.1777 14.3246 74.7404 14.1176C73.5779 13.4006 72.9966 12.2104 72.9966 10.5472C72.9966 9.17218 73.4853 8.07812 74.4627 7.26497C75.3661 6.51095 76.4584 6.13394 77.7394 6.13394C78.591 6.13394 79.35 6.267 80.0164 6.53313C81.1588 6.98932 81.5339 7.74494 81.6603 7.95245C81.9469 8.42315 82.2453 9.01694 82.3489 9.88184C82.3785 10.1258 82.3934 10.3476 82.3934 10.5472C82.3934 11.9591 81.9046 13.0568 80.9272 13.8404C80.0608 14.5353 78.9131 14.8827 77.4839 14.8827ZM79.6943 8.07442C80.2941 8.56971 80.5792 9.39395 80.5496 10.5472C80.5496 11.4121 80.2756 12.1032 79.7276 12.6207C79.1796 13.1382 78.4651 13.3969 77.5839 13.3969C76.7027 13.3969 76.0215 13.1529 75.5402 12.665C75.0588 12.1772 74.8256 11.4638 74.8404 10.525C74.8552 10.0814 74.933 9.68595 75.0736 9.33851C75.5031 8.2888 76.3584 7.7159 77.6394 7.6198C78.565 7.59023 79.25 7.74177 79.6943 8.07442ZM75.3069 18.6306C75.7364 18.7785 76.2399 18.8524 76.8175 18.8524L79.5055 18.6861C81.0457 18.6861 81.8306 19.3181 81.8602 20.5822C81.8602 21.558 81.3011 22.312 80.183 22.8442C79.5758 23.1399 78.7132 23.3026 77.595 23.3321C76.2029 23.3691 75.244 23.0438 74.7182 22.3564C74.3998 21.972 74.2406 21.4915 74.2406 20.9149C74.2406 20.6709 74.2665 20.4344 74.3184 20.2052C74.4887 19.4586 74.8182 18.9337 75.3069 18.6306Z"/>
</mask>
<path d="M6.68694 19.1185V3.66122H1V1.88706H14.2177V3.66122H8.61961V19.1185H6.68694Z" fill="white"/>
<path d="M16.4782 10.8909C16.5078 11.4527 16.5226 12.1624 16.5226 13.0199V19.1185H14.6455C14.6455 11.2753 14.6011 10.1147 14.5122 9.40504L16.356 9.2498C17.3409 7.17256 18.6626 6.13394 20.3213 6.13394C20.8915 6.13394 21.3617 6.1783 21.7319 6.26701L21.321 8.24075C20.9655 8.06334 20.5657 7.97463 20.1214 7.97463C19.6845 7.96724 19.2846 8.06334 18.9218 8.26293C18.559 8.46252 18.2257 8.71016 17.9221 9.00585C17.6259 9.30155 17.3594 9.61942 17.1224 9.95946L16.4782 10.8909Z" fill="white"/>
<path d="M22.8318 12.8646C22.8318 11.8001 22.9762 10.8465 23.265 10.0038C23.5612 9.1537 23.9722 8.44404 24.4979 7.87483C25.5568 6.71424 26.9489 6.13394 28.6743 6.13394C30.5255 6.13394 31.9361 6.70685 32.9061 7.85265C33.854 8.97629 34.3279 10.61 34.3279 12.7538C34.3279 14.868 33.7577 16.5201 32.6173 17.7103C31.5733 18.797 30.2071 19.3403 28.5188 19.3403C26.749 19.3403 25.3643 18.7859 24.3646 17.677C23.3428 16.5608 22.8318 14.9567 22.8318 12.8646ZM28.541 17.7325C31.0438 17.7325 32.2952 16.0729 32.2952 12.7538C32.2508 10.2699 31.5696 8.71386 30.2515 8.08551C29.785 7.86374 29.237 7.75286 28.6076 7.75286C27.9856 7.75286 27.4376 7.86744 26.9637 8.0966C26.4898 8.31837 26.09 8.64363 25.7641 9.07238C25.1051 9.96685 24.783 11.2125 24.7978 12.8092C24.82 14.4059 25.1421 15.6257 25.7641 16.4684C26.3936 17.3111 27.3192 17.7325 28.541 17.7325Z" fill="white"/>
<path d="M36.9659 12.8646C36.9659 11.8001 37.1103 10.8465 37.3991 10.0038C37.6953 9.1537 38.1063 8.44404 38.632 7.87483C39.6909 6.71424 41.083 6.13394 42.8084 6.13394C44.6596 6.13394 46.0702 6.70685 47.0402 7.85265C47.9881 8.97629 48.462 10.61 48.462 12.7538C48.462 14.868 47.8918 16.5201 46.7515 17.7103C45.7074 18.797 44.3412 19.3403 42.6529 19.3403C40.8831 19.3403 39.4984 18.7859 38.4987 17.677C37.4769 16.5608 36.9659 14.9567 36.9659 12.8646ZM42.6751 17.7325C45.1779 17.7325 46.4294 16.0729 46.4294 12.7538C46.3849 10.2699 45.7037 8.71386 44.3856 8.08551C43.9191 7.86374 43.3711 7.75286 42.7417 7.75286C42.1197 7.75286 41.5718 7.86744 41.0978 8.0966C40.6239 8.31837 40.2241 8.64363 39.8983 9.07238C39.2392 9.96685 38.9171 11.2125 38.9319 12.8092C38.9541 14.4059 39.2762 15.6257 39.8983 16.4684C40.5277 17.3111 41.4533 17.7325 42.6751 17.7325Z" fill="white"/>
<path d="M52.6322 15.6589C52.5877 16.4647 52.6951 17.0006 52.9543 17.2668C53.2135 17.5255 53.5837 17.6549 54.065 17.6549C54.5537 17.6549 55.2572 17.5292 56.1754 17.2779L56.5308 18.8968C55.5534 19.1629 54.7722 19.3033 54.1872 19.3181C53.6096 19.3403 53.1135 19.2997 52.6988 19.1962C52.2841 19.1001 51.9287 18.9189 51.6325 18.6528C50.9957 18.0836 50.6921 17.1263 50.7217 15.7809L50.7439 1.15524L52.6544 1L52.6322 15.6589Z" fill="white"/>
<path d="M58.7539 12.8646C58.7539 11.8001 58.8983 10.8465 59.1871 10.0038C59.4833 9.1537 59.8943 8.44404 60.42 7.87483C61.4789 6.71424 62.871 6.13394 64.5964 6.13394C66.4476 6.13394 67.8582 6.70685 68.8282 7.85265C69.7761 8.97629 70.25 10.61 70.25 12.7538C70.25 14.868 69.6798 16.5201 68.5395 17.7103C67.4954 18.797 66.1292 19.3403 64.4408 19.3403C62.6711 19.3403 61.2864 18.7859 60.2867 17.677C59.2649 16.5608 58.7539 14.9567 58.7539 12.8646ZM64.4631 17.7325C66.9659 17.7325 68.2173 16.0729 68.2173 12.7538C68.1729 10.2699 67.4917 8.71386 66.1736 8.08551C65.7071 7.86374 65.1591 7.75286 64.5297 7.75286C63.9077 7.75286 63.3597 7.86744 62.8858 8.0966C62.4119 8.31837 62.0121 8.64363 61.6862 9.07238C61.0272 9.96685 60.7051 11.2125 60.7199 12.8092C60.7421 14.4059 61.0642 15.6257 61.6862 16.4684C62.3157 17.3111 63.2413 17.7325 64.4631 17.7325Z" fill="white"/>
<path fill-rule="evenodd" clip-rule="evenodd" d="M77.4839 14.8827C76.7731 14.8827 76.1585 14.7829 75.6401 14.5833C75.4328 14.7016 75.2403 14.8901 75.0625 15.1489C74.7738 15.5628 74.6294 15.8622 74.6294 16.047C74.6294 16.3945 74.8034 16.6828 75.1514 16.9119C75.4698 17.1115 75.8697 17.2113 76.351 17.2113C76.8397 17.2113 77.2766 17.1817 77.6617 17.1226C78.3207 17.0117 78.9205 16.9563 79.461 16.9563C80.0016 16.9563 80.5273 17.0117 81.0383 17.1226C81.5566 17.2335 82.0157 17.4146 82.4156 17.6659C83.2968 18.2204 83.7707 19.0557 83.8373 20.1719C83.8743 21.7243 83.1746 22.944 81.738 23.8311C80.5755 24.5556 79.2019 24.9437 77.6172 24.9954C76.1881 25.0398 74.9848 24.7626 74.0074 24.1638C73.6815 23.9642 73.3964 23.7239 73.1521 23.443C72.6708 22.8812 72.4301 22.1974 72.4301 21.3917C72.4301 20.3715 72.7855 19.4808 73.4964 18.7193C73.726 18.468 73.9851 18.2573 74.2739 18.0873C73.4224 17.6438 72.9966 17.0376 72.9966 16.2688C72.9966 15.8031 73.1447 15.3817 73.4409 15.0047C73.7445 14.6203 74.1777 14.3246 74.7404 14.1176C73.5779 13.4006 72.9966 12.2104 72.9966 10.5472C72.9966 9.17218 73.4853 8.07812 74.4627 7.26497C75.3661 6.51095 76.4584 6.13394 77.7394 6.13394C78.591 6.13394 79.35 6.267 80.0164 6.53313C81.1588 6.98932 81.5339 7.74494 81.6603 7.95245C81.9469 8.42315 82.2453 9.01694 82.3489 9.88184C82.3785 10.1258 82.3934 10.3476 82.3934 10.5472C82.3934 11.9591 81.9046 13.0568 80.9272 13.8404C80.0608 14.5353 78.9131 14.8827 77.4839 14.8827ZM79.6943 8.07442C80.2941 8.56971 80.5792 9.39395 80.5496 10.5472C80.5496 11.4121 80.2756 12.1032 79.7276 12.6207C79.1796 13.1382 78.4651 13.3969 77.5839 13.3969C76.7027 13.3969 76.0215 13.1529 75.5402 12.665C75.0588 12.1772 74.8256 11.4638 74.8404 10.525C74.8552 10.0814 74.933 9.68595 75.0736 9.33851C75.5031 8.2888 76.3584 7.7159 77.6394 7.6198C78.565 7.59023 79.25 7.74177 79.6943 8.07442ZM75.3069 18.6306C75.7364 18.7785 76.2399 18.8524 76.8175 18.8524L79.5055 18.6861C81.0457 18.6861 81.8306 19.3181 81.8602 20.5822C81.8602 21.558 81.3011 22.312 80.183 22.8442C79.5758 23.1399 78.7132 23.3026 77.595 23.3321C76.2029 23.3691 75.244 23.0438 74.7182 22.3564C74.3998 21.972 74.2406 21.4915 74.2406 20.9149C74.2406 20.6709 74.2665 20.4344 74.3184 20.2052C74.4887 19.4586 74.8182 18.9337 75.3069 18.6306Z" fill="white"/>
<path d="M6.68694 19.1185V3.66122H1V1.88706H14.2177V3.66122H8.61961V19.1185H6.68694Z" stroke="black" stroke-width="0.2" mask="url(#path-1-outside-1_167_648)"/>
<path d="M16.4782 10.8909C16.5078 11.4527 16.5226 12.1624 16.5226 13.0199V19.1185H14.6455C14.6455 11.2753 14.6011 10.1147 14.5122 9.40504L16.356 9.2498C17.3409 7.17256 18.6626 6.13394 20.3213 6.13394C20.8915 6.13394 21.3617 6.1783 21.7319 6.26701L21.321 8.24075C20.9655 8.06334 20.5657 7.97463 20.1214 7.97463C19.6845 7.96724 19.2846 8.06334 18.9218 8.26293C18.559 8.46252 18.2257 8.71016 17.9221 9.00585C17.6259 9.30155 17.3594 9.61942 17.1224 9.95946L16.4782 10.8909Z" stroke="black" stroke-width="0.2" mask="url(#path-1-outside-1_167_648)"/>
<path d="M22.8318 12.8646C22.8318 11.8001 22.9762 10.8465 23.265 10.0038C23.5612 9.1537 23.9722 8.44404 24.4979 7.87483C25.5568 6.71424 26.9489 6.13394 28.6743 6.13394C30.5255 6.13394 31.9361 6.70685 32.9061 7.85265C33.854 8.97629 34.3279 10.61 34.3279 12.7538C34.3279 14.868 33.7577 16.5201 32.6173 17.7103C31.5733 18.797 30.2071 19.3403 28.5188 19.3403C26.749 19.3403 25.3643 18.7859 24.3646 17.677C23.3428 16.5608 22.8318 14.9567 22.8318 12.8646ZM28.541 17.7325C31.0438 17.7325 32.2952 16.0729 32.2952 12.7538C32.2508 10.2699 31.5696 8.71386 30.2515 8.08551C29.785 7.86374 29.237 7.75286 28.6076 7.75286C27.9856 7.75286 27.4376 7.86744 26.9637 8.0966C26.4898 8.31837 26.09 8.64363 25.7641 9.07238C25.1051 9.96685 24.783 11.2125 24.7978 12.8092C24.82 14.4059 25.1421 15.6257 25.7641 16.4684C26.3936 17.3111 27.3192 17.7325 28.541 17.7325Z" stroke="black" stroke-width="0.2" mask="url(#path-1-outside-1_167_648)"/>
<path d="M36.9659 12.8646C36.9659 11.8001 37.1103 10.8465 37.3991 10.0038C37.6953 9.1537 38.1063 8.44404 38.632 7.87483C39.6909 6.71424 41.083 6.13394 42.8084 6.13394C44.6596 6.13394 46.0702 6.70685 47.0402 7.85265C47.9881 8.97629 48.462 10.61 48.462 12.7538C48.462 14.868 47.8918 16.5201 46.7515 17.7103C45.7074 18.797 44.3412 19.3403 42.6529 19.3403C40.8831 19.3403 39.4984 18.7859 38.4987 17.677C37.4769 16.5608 36.9659 14.9567 36.9659 12.8646ZM42.6751 17.7325C45.1779 17.7325 46.4294 16.0729 46.4294 12.7538C46.3849 10.2699 45.7037 8.71386 44.3856 8.08551C43.9191 7.86374 43.3711 7.75286 42.7417 7.75286C42.1197 7.75286 41.5718 7.86744 41.0978 8.0966C40.6239 8.31837 40.2241 8.64363 39.8983 9.07238C39.2392 9.96685 38.9171 11.2125 38.9319 12.8092C38.9541 14.4059 39.2762 15.6257 39.8983 16.4684C40.5277 17.3111 41.4533 17.7325 42.6751 17.7325Z" stroke="black" stroke-width="0.2" mask="url(#path-1-outside-1_167_648)"/>
<path d="M52.6322 15.6589C52.5877 16.4647 52.6951 17.0006 52.9543 17.2668C53.2135 17.5255 53.5837 17.6549 54.065 17.6549C54.5537 17.6549 55.2572 17.5292 56.1754 17.2779L56.5308 18.8968C55.5534 19.1629 54.7722 19.3033 54.1872 19.3181C53.6096 19.3403 53.1135 19.2997 52.6988 19.1962C52.2841 19.1001 51.9287 18.9189 51.6325 18.6528C50.9957 18.0836 50.6921 17.1263 50.7217 15.7809L50.7439 1.15524L52.6544 1L52.6322 15.6589Z" stroke="black" stroke-width="0.2" mask="url(#path-1-outside-1_167_648)"/>
<path d="M58.7539 12.8646C58.7539 11.8001 58.8983 10.8465 59.1871 10.0038C59.4833 9.1537 59.8943 8.44404 60.42 7.87483C61.4789 6.71424 62.871 6.13394 64.5964 6.13394C66.4476 6.13394 67.8582 6.70685 68.8282 7.85265C69.7761 8.97629 70.25 10.61 70.25 12.7538C70.25 14.868 69.6798 16.5201 68.5395 17.7103C67.4954 18.797 66.1292 19.3403 64.4408 19.3403C62.6711 19.3403 61.2864 18.7859 60.2867 17.677C59.2649 16.5608 58.7539 14.9567 58.7539 12.8646ZM64.4631 17.7325C66.9659 17.7325 68.2173 16.0729 68.2173 12.7538C68.1729 10.2699 67.4917 8.71386 66.1736 8.08551C65.7071 7.86374 65.1591 7.75286 64.5297 7.75286C63.9077 7.75286 63.3597 7.86744 62.8858 8.0966C62.4119 8.31837 62.0121 8.64363 61.6862 9.07238C61.0272 9.96685 60.7051 11.2125 60.7199 12.8092C60.7421 14.4059 61.0642 15.6257 61.6862 16.4684C62.3157 17.3111 63.2413 17.7325 64.4631 17.7325Z" stroke="black" stroke-width="0.2" mask="url(#path-1-outside-1_167_648)"/>
<path fill-rule="evenodd" clip-rule="evenodd" d="M77.4839 14.8827C76.7731 14.8827 76.1585 14.7829 75.6401 14.5833C75.4328 14.7016 75.2403 14.8901 75.0625 15.1489C74.7738 15.5628 74.6294 15.8622 74.6294 16.047C74.6294 16.3945 74.8034 16.6828 75.1514 16.9119C75.4698 17.1115 75.8697 17.2113 76.351 17.2113C76.8397 17.2113 77.2766 17.1817 77.6617 17.1226C78.3207 17.0117 78.9205 16.9563 79.461 16.9563C80.0016 16.9563 80.5273 17.0117 81.0383 17.1226C81.5566 17.2335 82.0157 17.4146 82.4156 17.6659C83.2968 18.2204 83.7707 19.0557 83.8373 20.1719C83.8743 21.7243 83.1746 22.944 81.738 23.8311C80.5755 24.5556 79.2019 24.9437 77.6172 24.9954C76.1881 25.0398 74.9848 24.7626 74.0074 24.1638C73.6815 23.9642 73.3964 23.7239 73.1521 23.443C72.6708 22.8812 72.4301 22.1974 72.4301 21.3917C72.4301 20.3715 72.7855 19.4808 73.4964 18.7193C73.726 18.468 73.9851 18.2573 74.2739 18.0873C73.4224 17.6438 72.9966 17.0376 72.9966 16.2688C72.9966 15.8031 73.1447 15.3817 73.4409 15.0047C73.7445 14.6203 74.1777 14.3246 74.7404 14.1176C73.5779 13.4006 72.9966 12.2104 72.9966 10.5472C72.9966 9.17218 73.4853 8.07812 74.4627 7.26497C75.3661 6.51095 76.4584 6.13394 77.7394 6.13394C78.591 6.13394 79.35 6.267 80.0164 6.53313C81.1588 6.98932 81.5339 7.74494 81.6603 7.95245C81.9469 8.42315 82.2453 9.01694 82.3489 9.88184C82.3785 10.1258 82.3934 10.3476 82.3934 10.5472C82.3934 11.9591 81.9046 13.0568 80.9272 13.8404C80.0608 14.5353 78.9131 14.8827 77.4839 14.8827ZM79.6943 8.07442C80.2941 8.56971 80.5792 9.39395 80.5496 10.5472C80.5496 11.4121 80.2756 12.1032 79.7276 12.6207C79.1796 13.1382 78.4651 13.3969 77.5839 13.3969C76.7027 13.3969 76.0215 13.1529 75.5402 12.665C75.0588 12.1772 74.8256 11.4638 74.8404 10.525C74.8552 10.0814 74.933 9.68595 75.0736 9.33851C75.5031 8.2888 76.3584 7.7159 77.6394 7.6198C78.565 7.59023 79.25 7.74177 79.6943 8.07442ZM75.3069 18.6306C75.7364 18.7785 76.2399 18.8524 76.8175 18.8524L79.5055 18.6861C81.0457 18.6861 81.8306 19.3181 81.8602 20.5822C81.8602 21.558 81.3011 22.312 80.183 22.8442C79.5758 23.1399 78.7132 23.3026 77.595 23.3321C76.2029 23.3691 75.244 23.0438 74.7182 22.3564C74.3998 21.972 74.2406 21.4915 74.2406 20.9149C74.2406 20.6709 74.2665 20.4344 74.3184 20.2052C74.4887 19.4586 74.8182 18.9337 75.3069 18.6306Z" stroke="black" stroke-width="0.2" mask="url(#path-1-outside-1_167_648)"/>
</svg>
