<svg width="71" height="22" viewBox="0 0 71 22" fill="none" xmlns="http://www.w3.org/2000/svg">
<mask id="path-1-outside-1_149_4962" maskUnits="userSpaceOnUse" x="0" y="0" width="71" height="22" fill="black">
<rect fill="white" width="71" height="22"/>
<path d="M5.73108 16.0988V3.21768H1V1.73922H11.9961V3.21768H7.3389V16.0988H5.73108Z"/>
<path d="M13.8766 9.24241C13.9013 9.71059 13.9136 10.302 13.9136 11.0166V16.0988H12.3519C12.3519 9.56274 12.315 8.59558 12.2411 8.0042L13.775 7.87483C14.5943 6.1438 15.6939 5.27829 17.0738 5.27829C17.5481 5.27829 17.9393 5.31525 18.2473 5.38917L17.9054 7.03396C17.6097 6.88611 17.2771 6.81219 16.9075 6.81219C16.544 6.80603 16.2113 6.88611 15.9095 7.05244C15.6076 7.21877 15.3304 7.42514 15.0779 7.67155C14.8315 7.91796 14.6097 8.18285 14.4126 8.46622L13.8766 9.24241Z"/>
<path d="M19.1623 10.8872C19.1623 10.0001 19.2824 9.20545 19.5227 8.50318C19.7691 7.79475 20.111 7.20337 20.5484 6.72903C21.4293 5.76187 22.5874 5.27829 24.0228 5.27829C25.5628 5.27829 26.7364 5.75571 27.5433 6.71055C28.3319 7.6469 28.7261 9.00832 28.7261 10.7948C28.7261 12.5566 28.2518 13.9334 27.3031 14.9252C26.4345 15.8308 25.2979 16.2836 23.8934 16.2836C22.4211 16.2836 21.2691 15.8216 20.4375 14.8975C19.5874 13.9673 19.1623 12.6306 19.1623 10.8872ZM23.9119 14.9437C25.994 14.9437 27.0351 13.5607 27.0351 10.7948C26.9982 8.72495 26.4314 7.42822 25.3349 6.90459C24.9468 6.71979 24.4909 6.62738 23.9673 6.62738C23.4499 6.62738 22.994 6.72287 22.5997 6.91383C22.2055 7.09864 21.8728 7.36969 21.6018 7.72699C21.0535 8.47238 20.7855 9.51038 20.7979 10.841C20.8163 12.1716 21.0843 13.1881 21.6018 13.8903C22.1254 14.5926 22.8954 14.9437 23.9119 14.9437Z"/>
<path d="M30.9208 10.8872C30.9208 10.0001 31.0409 9.20545 31.2811 8.50318C31.5276 7.79475 31.8694 7.20337 32.3068 6.72903C33.1877 5.76187 34.3459 5.27829 35.7812 5.27829C37.3213 5.27829 38.4948 5.75571 39.3018 6.71055C40.0903 7.6469 40.4846 9.00832 40.4846 10.7948C40.4846 12.5566 40.0102 13.9334 39.0615 14.9252C38.193 15.8308 37.0564 16.2836 35.6518 16.2836C34.1795 16.2836 33.0276 15.8216 32.1959 14.8975C31.3458 13.9673 30.9208 12.6306 30.9208 10.8872ZM35.6703 14.9437C37.7525 14.9437 38.7936 13.5607 38.7936 10.7948C38.7566 8.72495 38.1899 7.42822 37.0933 6.90459C36.7052 6.71979 36.2494 6.62738 35.7258 6.62738C35.2083 6.62738 34.7524 6.72287 34.3582 6.91383C33.9639 7.09864 33.6313 7.36969 33.3602 7.72699C32.812 8.47238 32.544 9.51038 32.5563 10.841C32.5748 12.1716 32.8428 13.1881 33.3602 13.8903C33.8839 14.5926 34.6539 14.9437 35.6703 14.9437Z"/>
<path d="M43.9538 13.2158C43.9169 13.8873 44.0062 14.3339 44.2218 14.5556C44.4374 14.7712 44.7454 14.8791 45.1458 14.8791C45.5524 14.8791 46.1376 14.7743 46.9015 14.5649L47.1972 15.914C46.384 16.1357 45.7341 16.2528 45.2475 16.2651C44.767 16.2836 44.3542 16.2497 44.0093 16.1635C43.6643 16.0834 43.3686 15.9325 43.1222 15.7107C42.5924 15.2363 42.3398 14.4386 42.3645 13.3174L42.3829 1.12937L43.9723 1L43.9538 13.2158Z"/>
<path d="M49.0466 10.8872C49.0466 10.0001 49.1667 9.20545 49.407 8.50318C49.6534 7.79475 49.9953 7.20337 50.4327 6.72903C51.3136 5.76187 52.4717 5.27829 53.9071 5.27829C55.4471 5.27829 56.6207 5.75571 57.4276 6.71055C58.2162 7.6469 58.6104 9.00832 58.6104 10.7948C58.6104 12.5566 58.1361 13.9334 57.1874 14.9252C56.3188 15.8308 55.1822 16.2836 53.7777 16.2836C52.3054 16.2836 51.1534 15.8216 50.3218 14.8975C49.4717 13.9673 49.0466 12.6306 49.0466 10.8872ZM53.7962 14.9437C55.8783 14.9437 56.9194 13.5607 56.9194 10.7948C56.8825 8.72495 56.3157 7.42822 55.2192 6.90459C54.8311 6.71979 54.3752 6.62738 53.8516 6.62738C53.3342 6.62738 52.8783 6.72287 52.484 6.91383C52.0898 7.09864 51.7571 7.36969 51.4861 7.72699C50.9378 8.47238 50.6698 9.51038 50.6822 10.841C50.7006 12.1716 50.9686 13.1881 51.4861 13.8903C52.0097 14.5926 52.7797 14.9437 53.7962 14.9437Z"/>
<path fill-rule="evenodd" clip-rule="evenodd" d="M64.6285 12.5689C64.0371 12.5689 63.5258 12.4858 63.0946 12.3195C62.9221 12.418 62.7619 12.5751 62.6141 12.7907C62.3738 13.1357 62.2537 13.3852 62.2537 13.5392C62.2537 13.8287 62.3985 14.069 62.688 14.2599C62.9529 14.4263 63.2856 14.5094 63.686 14.5094C64.0926 14.5094 64.456 14.4848 64.7763 14.4355C65.3246 14.3431 65.8236 14.2969 66.2733 14.2969C66.723 14.2969 67.1604 14.3431 67.5854 14.4355C68.0166 14.5279 68.3986 14.6788 68.7312 14.8883C69.4643 15.3503 69.8586 16.0464 69.914 16.9766C69.9448 18.2703 69.3626 19.2867 68.1676 20.0259C67.2004 20.6296 66.0577 20.9531 64.7394 20.9962C63.5505 21.0331 62.5494 20.8021 61.7363 20.3031C61.4652 20.1368 61.228 19.9366 61.0247 19.7025C60.6243 19.2343 60.4241 18.6645 60.4241 17.9931C60.4241 17.1429 60.7198 16.4006 61.3112 15.7661C61.5022 15.5567 61.7178 15.3811 61.958 15.2394C61.2496 14.8698 60.8954 14.3647 60.8954 13.724C60.8954 13.3359 61.0186 12.9848 61.265 12.6706C61.5176 12.3503 61.8779 12.1038 62.3461 11.9314C61.379 11.3338 60.8954 10.342 60.8954 8.95596C60.8954 7.81015 61.302 6.89843 62.1151 6.22081C62.8667 5.59246 63.7753 5.27829 64.841 5.27829C65.5495 5.27829 66.1809 5.38917 66.7353 5.61094C67.6857 5.9911 67.9977 6.62078 68.1029 6.79371C68.3413 7.18596 68.5895 7.68079 68.6758 8.40154C68.7004 8.60482 68.7127 8.78963 68.7127 8.95596C68.7127 10.1326 68.3062 11.0474 67.493 11.7004C66.7723 12.2794 65.8174 12.5689 64.6285 12.5689ZM66.4673 6.89535C66.9663 7.30809 67.2035 7.99496 67.1788 8.95596C67.1788 9.67671 66.9509 10.2527 66.4951 10.6839C66.0392 11.1151 65.4447 11.3307 64.7117 11.3307C63.9786 11.3307 63.4118 11.1274 63.0114 10.7209C62.611 10.3143 62.417 9.71983 62.4293 8.93748C62.4416 8.56786 62.5063 8.23829 62.6233 7.94876C62.9806 7.074 63.6921 6.59658 64.7579 6.5165C65.5279 6.49186 66.0977 6.61814 66.4673 6.89535ZM62.8174 15.6922C63.1747 15.8154 63.5936 15.877 64.0741 15.877L66.3102 15.7384C67.5916 15.7384 68.2446 16.2651 68.2692 17.3185C68.2692 18.1317 67.8041 18.76 66.8739 19.2035C66.3688 19.45 65.6511 19.5855 64.7209 19.6101C63.5628 19.6409 62.765 19.3699 62.3276 18.797C62.0627 18.4766 61.9303 18.0762 61.9303 17.5957C61.9303 17.3924 61.9519 17.1953 61.995 17.0043C62.1367 16.3821 62.4108 15.9448 62.8174 15.6922Z"/>
</mask>
<path d="M5.73108 16.0988V3.21768H1V1.73922H11.9961V3.21768H7.3389V16.0988H5.73108Z" fill="black"/>
<path d="M13.8766 9.24241C13.9013 9.71059 13.9136 10.302 13.9136 11.0166V16.0988H12.3519C12.3519 9.56274 12.315 8.59558 12.2411 8.0042L13.775 7.87483C14.5943 6.1438 15.6939 5.27829 17.0738 5.27829C17.5481 5.27829 17.9393 5.31525 18.2473 5.38917L17.9054 7.03396C17.6097 6.88611 17.2771 6.81219 16.9075 6.81219C16.544 6.80603 16.2113 6.88611 15.9095 7.05244C15.6076 7.21877 15.3304 7.42514 15.0779 7.67155C14.8315 7.91796 14.6097 8.18285 14.4126 8.46622L13.8766 9.24241Z" fill="black"/>
<path d="M19.1623 10.8872C19.1623 10.0001 19.2824 9.20545 19.5227 8.50318C19.7691 7.79475 20.111 7.20337 20.5484 6.72903C21.4293 5.76187 22.5874 5.27829 24.0228 5.27829C25.5628 5.27829 26.7364 5.75571 27.5433 6.71055C28.3319 7.6469 28.7261 9.00832 28.7261 10.7948C28.7261 12.5566 28.2518 13.9334 27.3031 14.9252C26.4345 15.8308 25.2979 16.2836 23.8934 16.2836C22.4211 16.2836 21.2691 15.8216 20.4375 14.8975C19.5874 13.9673 19.1623 12.6306 19.1623 10.8872ZM23.9119 14.9437C25.994 14.9437 27.0351 13.5607 27.0351 10.7948C26.9982 8.72495 26.4314 7.42822 25.3349 6.90459C24.9468 6.71979 24.4909 6.62738 23.9673 6.62738C23.4499 6.62738 22.994 6.72287 22.5997 6.91383C22.2055 7.09864 21.8728 7.36969 21.6018 7.72699C21.0535 8.47238 20.7855 9.51038 20.7979 10.841C20.8163 12.1716 21.0843 13.1881 21.6018 13.8903C22.1254 14.5926 22.8954 14.9437 23.9119 14.9437Z" fill="black"/>
<path d="M30.9208 10.8872C30.9208 10.0001 31.0409 9.20545 31.2811 8.50318C31.5276 7.79475 31.8694 7.20337 32.3068 6.72903C33.1877 5.76187 34.3459 5.27829 35.7812 5.27829C37.3213 5.27829 38.4948 5.75571 39.3018 6.71055C40.0903 7.6469 40.4846 9.00832 40.4846 10.7948C40.4846 12.5566 40.0102 13.9334 39.0615 14.9252C38.193 15.8308 37.0564 16.2836 35.6518 16.2836C34.1795 16.2836 33.0276 15.8216 32.1959 14.8975C31.3458 13.9673 30.9208 12.6306 30.9208 10.8872ZM35.6703 14.9437C37.7525 14.9437 38.7936 13.5607 38.7936 10.7948C38.7566 8.72495 38.1899 7.42822 37.0933 6.90459C36.7052 6.71979 36.2494 6.62738 35.7258 6.62738C35.2083 6.62738 34.7524 6.72287 34.3582 6.91383C33.9639 7.09864 33.6313 7.36969 33.3602 7.72699C32.812 8.47238 32.544 9.51038 32.5563 10.841C32.5748 12.1716 32.8428 13.1881 33.3602 13.8903C33.8839 14.5926 34.6539 14.9437 35.6703 14.9437Z" fill="black"/>
<path d="M43.9538 13.2158C43.9169 13.8873 44.0062 14.3339 44.2218 14.5556C44.4374 14.7712 44.7454 14.8791 45.1458 14.8791C45.5524 14.8791 46.1376 14.7743 46.9015 14.5649L47.1972 15.914C46.384 16.1357 45.7341 16.2528 45.2475 16.2651C44.767 16.2836 44.3542 16.2497 44.0093 16.1635C43.6643 16.0834 43.3686 15.9325 43.1222 15.7107C42.5924 15.2363 42.3398 14.4386 42.3645 13.3174L42.3829 1.12937L43.9723 1L43.9538 13.2158Z" fill="black"/>
<path d="M49.0466 10.8872C49.0466 10.0001 49.1667 9.20545 49.407 8.50318C49.6534 7.79475 49.9953 7.20337 50.4327 6.72903C51.3136 5.76187 52.4717 5.27829 53.9071 5.27829C55.4471 5.27829 56.6207 5.75571 57.4276 6.71055C58.2162 7.6469 58.6104 9.00832 58.6104 10.7948C58.6104 12.5566 58.1361 13.9334 57.1874 14.9252C56.3188 15.8308 55.1822 16.2836 53.7777 16.2836C52.3054 16.2836 51.1534 15.8216 50.3218 14.8975C49.4717 13.9673 49.0466 12.6306 49.0466 10.8872ZM53.7962 14.9437C55.8783 14.9437 56.9194 13.5607 56.9194 10.7948C56.8825 8.72495 56.3157 7.42822 55.2192 6.90459C54.8311 6.71979 54.3752 6.62738 53.8516 6.62738C53.3342 6.62738 52.8783 6.72287 52.484 6.91383C52.0898 7.09864 51.7571 7.36969 51.4861 7.72699C50.9378 8.47238 50.6698 9.51038 50.6822 10.841C50.7006 12.1716 50.9686 13.1881 51.4861 13.8903C52.0097 14.5926 52.7797 14.9437 53.7962 14.9437Z" fill="black"/>
<path fill-rule="evenodd" clip-rule="evenodd" d="M64.6285 12.5689C64.0371 12.5689 63.5258 12.4858 63.0946 12.3195C62.9221 12.418 62.7619 12.5751 62.6141 12.7907C62.3738 13.1357 62.2537 13.3852 62.2537 13.5392C62.2537 13.8287 62.3985 14.069 62.688 14.2599C62.9529 14.4263 63.2856 14.5094 63.686 14.5094C64.0926 14.5094 64.456 14.4848 64.7763 14.4355C65.3246 14.3431 65.8236 14.2969 66.2733 14.2969C66.723 14.2969 67.1604 14.3431 67.5854 14.4355C68.0166 14.5279 68.3986 14.6788 68.7312 14.8883C69.4643 15.3503 69.8586 16.0464 69.914 16.9766C69.9448 18.2703 69.3626 19.2867 68.1676 20.0259C67.2004 20.6296 66.0577 20.9531 64.7394 20.9962C63.5505 21.0331 62.5494 20.8021 61.7363 20.3031C61.4652 20.1368 61.228 19.9366 61.0247 19.7025C60.6243 19.2343 60.4241 18.6645 60.4241 17.9931C60.4241 17.1429 60.7198 16.4006 61.3112 15.7661C61.5022 15.5567 61.7178 15.3811 61.958 15.2394C61.2496 14.8698 60.8954 14.3647 60.8954 13.724C60.8954 13.3359 61.0186 12.9848 61.265 12.6706C61.5176 12.3503 61.8779 12.1038 62.3461 11.9314C61.379 11.3338 60.8954 10.342 60.8954 8.95596C60.8954 7.81015 61.302 6.89843 62.1151 6.22081C62.8667 5.59246 63.7753 5.27829 64.841 5.27829C65.5495 5.27829 66.1809 5.38917 66.7353 5.61094C67.6857 5.9911 67.9977 6.62078 68.1029 6.79371C68.3413 7.18596 68.5895 7.68079 68.6758 8.40154C68.7004 8.60482 68.7127 8.78963 68.7127 8.95596C68.7127 10.1326 68.3062 11.0474 67.493 11.7004C66.7723 12.2794 65.8174 12.5689 64.6285 12.5689ZM66.4673 6.89535C66.9663 7.30809 67.2035 7.99496 67.1788 8.95596C67.1788 9.67671 66.9509 10.2527 66.4951 10.6839C66.0392 11.1151 65.4447 11.3307 64.7117 11.3307C63.9786 11.3307 63.4118 11.1274 63.0114 10.7209C62.611 10.3143 62.417 9.71983 62.4293 8.93748C62.4416 8.56786 62.5063 8.23829 62.6233 7.94876C62.9806 7.074 63.6921 6.59658 64.7579 6.5165C65.5279 6.49186 66.0977 6.61814 66.4673 6.89535ZM62.8174 15.6922C63.1747 15.8154 63.5936 15.877 64.0741 15.877L66.3102 15.7384C67.5916 15.7384 68.2446 16.2651 68.2692 17.3185C68.2692 18.1317 67.8041 18.76 66.8739 19.2035C66.3688 19.45 65.6511 19.5855 64.7209 19.6101C63.5628 19.6409 62.765 19.3699 62.3276 18.797C62.0627 18.4766 61.9303 18.0762 61.9303 17.5957C61.9303 17.3924 61.9519 17.1953 61.995 17.0043C62.1367 16.3821 62.4108 15.9448 62.8174 15.6922Z" fill="black"/>
<path d="M5.73108 16.0988V3.21768H1V1.73922H11.9961V3.21768H7.3389V16.0988H5.73108Z" stroke="black" stroke-width="0.2" mask="url(#path-1-outside-1_149_4962)"/>
<path d="M13.8766 9.24241C13.9013 9.71059 13.9136 10.302 13.9136 11.0166V16.0988H12.3519C12.3519 9.56274 12.315 8.59558 12.2411 8.0042L13.775 7.87483C14.5943 6.1438 15.6939 5.27829 17.0738 5.27829C17.5481 5.27829 17.9393 5.31525 18.2473 5.38917L17.9054 7.03396C17.6097 6.88611 17.2771 6.81219 16.9075 6.81219C16.544 6.80603 16.2113 6.88611 15.9095 7.05244C15.6076 7.21877 15.3304 7.42514 15.0779 7.67155C14.8315 7.91796 14.6097 8.18285 14.4126 8.46622L13.8766 9.24241Z" stroke="black" stroke-width="0.2" mask="url(#path-1-outside-1_149_4962)"/>
<path d="M19.1623 10.8872C19.1623 10.0001 19.2824 9.20545 19.5227 8.50318C19.7691 7.79475 20.111 7.20337 20.5484 6.72903C21.4293 5.76187 22.5874 5.27829 24.0228 5.27829C25.5628 5.27829 26.7364 5.75571 27.5433 6.71055C28.3319 7.6469 28.7261 9.00832 28.7261 10.7948C28.7261 12.5566 28.2518 13.9334 27.3031 14.9252C26.4345 15.8308 25.2979 16.2836 23.8934 16.2836C22.4211 16.2836 21.2691 15.8216 20.4375 14.8975C19.5874 13.9673 19.1623 12.6306 19.1623 10.8872ZM23.9119 14.9437C25.994 14.9437 27.0351 13.5607 27.0351 10.7948C26.9982 8.72495 26.4314 7.42822 25.3349 6.90459C24.9468 6.71979 24.4909 6.62738 23.9673 6.62738C23.4499 6.62738 22.994 6.72287 22.5997 6.91383C22.2055 7.09864 21.8728 7.36969 21.6018 7.72699C21.0535 8.47238 20.7855 9.51038 20.7979 10.841C20.8163 12.1716 21.0843 13.1881 21.6018 13.8903C22.1254 14.5926 22.8954 14.9437 23.9119 14.9437Z" stroke="black" stroke-width="0.2" mask="url(#path-1-outside-1_149_4962)"/>
<path d="M30.9208 10.8872C30.9208 10.0001 31.0409 9.20545 31.2811 8.50318C31.5276 7.79475 31.8694 7.20337 32.3068 6.72903C33.1877 5.76187 34.3459 5.27829 35.7812 5.27829C37.3213 5.27829 38.4948 5.75571 39.3018 6.71055C40.0903 7.6469 40.4846 9.00832 40.4846 10.7948C40.4846 12.5566 40.0102 13.9334 39.0615 14.9252C38.193 15.8308 37.0564 16.2836 35.6518 16.2836C34.1795 16.2836 33.0276 15.8216 32.1959 14.8975C31.3458 13.9673 30.9208 12.6306 30.9208 10.8872ZM35.6703 14.9437C37.7525 14.9437 38.7936 13.5607 38.7936 10.7948C38.7566 8.72495 38.1899 7.42822 37.0933 6.90459C36.7052 6.71979 36.2494 6.62738 35.7258 6.62738C35.2083 6.62738 34.7524 6.72287 34.3582 6.91383C33.9639 7.09864 33.6313 7.36969 33.3602 7.72699C32.812 8.47238 32.544 9.51038 32.5563 10.841C32.5748 12.1716 32.8428 13.1881 33.3602 13.8903C33.8839 14.5926 34.6539 14.9437 35.6703 14.9437Z" stroke="black" stroke-width="0.2" mask="url(#path-1-outside-1_149_4962)"/>
<path d="M43.9538 13.2158C43.9169 13.8873 44.0062 14.3339 44.2218 14.5556C44.4374 14.7712 44.7454 14.8791 45.1458 14.8791C45.5524 14.8791 46.1376 14.7743 46.9015 14.5649L47.1972 15.914C46.384 16.1357 45.7341 16.2528 45.2475 16.2651C44.767 16.2836 44.3542 16.2497 44.0093 16.1635C43.6643 16.0834 43.3686 15.9325 43.1222 15.7107C42.5924 15.2363 42.3398 14.4386 42.3645 13.3174L42.3829 1.12937L43.9723 1L43.9538 13.2158Z" stroke="black" stroke-width="0.2" mask="url(#path-1-outside-1_149_4962)"/>
<path d="M49.0466 10.8872C49.0466 10.0001 49.1667 9.20545 49.407 8.50318C49.6534 7.79475 49.9953 7.20337 50.4327 6.72903C51.3136 5.76187 52.4717 5.27829 53.9071 5.27829C55.4471 5.27829 56.6207 5.75571 57.4276 6.71055C58.2162 7.6469 58.6104 9.00832 58.6104 10.7948C58.6104 12.5566 58.1361 13.9334 57.1874 14.9252C56.3188 15.8308 55.1822 16.2836 53.7777 16.2836C52.3054 16.2836 51.1534 15.8216 50.3218 14.8975C49.4717 13.9673 49.0466 12.6306 49.0466 10.8872ZM53.7962 14.9437C55.8783 14.9437 56.9194 13.5607 56.9194 10.7948C56.8825 8.72495 56.3157 7.42822 55.2192 6.90459C54.8311 6.71979 54.3752 6.62738 53.8516 6.62738C53.3342 6.62738 52.8783 6.72287 52.484 6.91383C52.0898 7.09864 51.7571 7.36969 51.4861 7.72699C50.9378 8.47238 50.6698 9.51038 50.6822 10.841C50.7006 12.1716 50.9686 13.1881 51.4861 13.8903C52.0097 14.5926 52.7797 14.9437 53.7962 14.9437Z" stroke="black" stroke-width="0.2" mask="url(#path-1-outside-1_149_4962)"/>
<path fill-rule="evenodd" clip-rule="evenodd" d="M64.6285 12.5689C64.0371 12.5689 63.5258 12.4858 63.0946 12.3195C62.9221 12.418 62.7619 12.5751 62.6141 12.7907C62.3738 13.1357 62.2537 13.3852 62.2537 13.5392C62.2537 13.8287 62.3985 14.069 62.688 14.2599C62.9529 14.4263 63.2856 14.5094 63.686 14.5094C64.0926 14.5094 64.456 14.4848 64.7763 14.4355C65.3246 14.3431 65.8236 14.2969 66.2733 14.2969C66.723 14.2969 67.1604 14.3431 67.5854 14.4355C68.0166 14.5279 68.3986 14.6788 68.7312 14.8883C69.4643 15.3503 69.8586 16.0464 69.914 16.9766C69.9448 18.2703 69.3626 19.2867 68.1676 20.0259C67.2004 20.6296 66.0577 20.9531 64.7394 20.9962C63.5505 21.0331 62.5494 20.8021 61.7363 20.3031C61.4652 20.1368 61.228 19.9366 61.0247 19.7025C60.6243 19.2343 60.4241 18.6645 60.4241 17.9931C60.4241 17.1429 60.7198 16.4006 61.3112 15.7661C61.5022 15.5567 61.7178 15.3811 61.958 15.2394C61.2496 14.8698 60.8954 14.3647 60.8954 13.724C60.8954 13.3359 61.0186 12.9848 61.265 12.6706C61.5176 12.3503 61.8779 12.1038 62.3461 11.9314C61.379 11.3338 60.8954 10.342 60.8954 8.95596C60.8954 7.81015 61.302 6.89843 62.1151 6.22081C62.8667 5.59246 63.7753 5.27829 64.841 5.27829C65.5495 5.27829 66.1809 5.38917 66.7353 5.61094C67.6857 5.9911 67.9977 6.62078 68.1029 6.79371C68.3413 7.18596 68.5895 7.68079 68.6758 8.40154C68.7004 8.60482 68.7127 8.78963 68.7127 8.95596C68.7127 10.1326 68.3062 11.0474 67.493 11.7004C66.7723 12.2794 65.8174 12.5689 64.6285 12.5689ZM66.4673 6.89535C66.9663 7.30809 67.2035 7.99496 67.1788 8.95596C67.1788 9.67671 66.9509 10.2527 66.4951 10.6839C66.0392 11.1151 65.4447 11.3307 64.7117 11.3307C63.9786 11.3307 63.4118 11.1274 63.0114 10.7209C62.611 10.3143 62.417 9.71983 62.4293 8.93748C62.4416 8.56786 62.5063 8.23829 62.6233 7.94876C62.9806 7.074 63.6921 6.59658 64.7579 6.5165C65.5279 6.49186 66.0977 6.61814 66.4673 6.89535ZM62.8174 15.6922C63.1747 15.8154 63.5936 15.877 64.0741 15.877L66.3102 15.7384C67.5916 15.7384 68.2446 16.2651 68.2692 17.3185C68.2692 18.1317 67.8041 18.76 66.8739 19.2035C66.3688 19.45 65.6511 19.5855 64.7209 19.6101C63.5628 19.6409 62.765 19.3699 62.3276 18.797C62.0627 18.4766 61.9303 18.0762 61.9303 17.5957C61.9303 17.3924 61.9519 17.1953 61.995 17.0043C62.1367 16.3821 62.4108 15.9448 62.8174 15.6922Z" stroke="black" stroke-width="0.2" mask="url(#path-1-outside-1_149_4962)"/>
</svg>
